<svg width="64" height="112" viewBox="0 0 64 112" fill="none" xmlns="http://www.w3.org/2000/svg">
<g clip-path="url(#clip0_16_822)">
<path d="M3.9646 110.146C3.9646 111.258 3.02065 112.185 1.88791 112.185C0.943953 112 -1.37793e-07 111.258 -8.91599e-08 110.146C-4.05273e-08 109.033 0.943953 108.106 2.0767 108.106C3.02065 108.106 3.9646 109.033 3.9646 110.146Z" fill="#7D53F8"/>
<path d="M10.0059 100.689C10.0059 100.503 10.0059 100.503 10.0059 100.318C10.0059 100.132 10.0059 99.7616 10.1946 99.5762C10.3834 99.0199 10.9498 98.4636 11.705 98.4636C11.8938 98.4636 11.8938 98.4636 12.0826 98.4636C12.8377 98.4636 13.5929 99.0199 13.9705 99.5762C14.1593 99.7616 14.1593 100.132 14.1593 100.318C14.1593 100.503 14.1593 100.503 14.1593 100.689C13.9705 101.616 13.2153 102.172 12.2713 102.172C12.0826 102.172 12.0826 102.172 11.8938 102.172C10.761 101.987 10.1946 101.431 10.0059 100.689Z" fill="#7D53F8"/>
<path d="M40.0239 110.146C40.0239 109.033 40.9679 108.106 42.1006 108.106C43.2334 108.106 44.1773 109.033 44.1773 110.146C44.1773 111.258 43.2334 112.185 42.1006 112.185C40.9679 112 40.0239 111.258 40.0239 110.146Z" fill="#7D53F8"/>
<path d="M20.0112 110.146C20.0112 109.033 20.9552 108.106 22.0879 108.106C23.2207 108.106 24.1646 109.033 24.1646 110.146C24.1646 111.258 23.2207 112.185 22.0879 112.185C20.9552 112 20.0112 111.258 20.0112 110.146Z" fill="#7D53F8"/>
<path d="M50.0298 100.689C50.0298 100.503 50.0298 100.503 50.0298 100.318C50.0298 100.132 50.0298 99.7615 50.2186 99.5761C50.4074 99.2052 50.5962 98.8344 50.9737 98.6489C51.3513 98.4635 51.7289 98.2781 52.1065 98.2781C52.2953 98.2781 52.6729 98.2781 52.8616 98.4635C53.428 98.6489 53.8056 99.0198 53.9944 99.5761C54.1832 99.7615 54.1832 100.132 54.1832 100.318C54.1832 100.503 54.1832 100.503 54.1832 100.689C53.9944 101.245 53.6168 101.801 53.0504 102.172C52.8616 102.358 52.4841 102.358 52.2953 102.358C51.9177 102.358 51.5401 102.172 51.1625 101.987C50.4074 101.616 50.2186 101.245 50.0298 100.689Z" fill="#7D53F8"/>
<path d="M30.0176 100.689C30.0176 100.503 30.0176 100.503 30.0176 100.318C30.0176 100.132 30.0176 99.7616 30.2064 99.5762C30.584 98.8345 31.1503 98.4636 32.0943 98.4636C32.8494 98.4636 33.6046 99.0199 33.9822 99.5762C34.171 99.7616 34.171 100.132 34.171 100.318C34.171 100.503 34.171 100.503 34.171 100.689C33.9822 101.616 33.227 102.172 32.2831 102.172C31.1503 102.172 30.2064 101.616 30.0176 100.689Z" fill="#7D53F8"/>
<path d="M60.0352 110.146C60.0352 109.033 60.9791 108.106 62.1119 108.106C63.2446 108.106 64.1886 109.033 64.1886 110.146C64.1886 111.258 63.2446 112.185 62.1119 112.185C60.9791 112 60.0352 111.258 60.0352 110.146Z" fill="#7D53F8"/>
<path d="M10.0059 80.6622C10.0059 79.735 10.761 78.9933 11.5162 78.8079C11.705 78.8079 11.705 78.8079 11.8938 78.8079C13.0265 78.8079 13.9705 79.735 13.9705 80.8476C13.9705 81.9602 13.0265 82.8873 11.8938 82.8873C11.705 82.8873 11.705 82.8873 11.5162 82.8873C10.761 82.3311 10.0059 81.5893 10.0059 80.6622Z" fill="#7D53F8"/>
<path d="M-8.91598e-08 70.8345C-4.05273e-08 69.722 0.943953 68.7948 2.0767 68.7948C3.20944 68.7948 4.15339 69.722 4.15339 70.8345C4.15339 71.9471 3.20944 72.8743 2.0767 72.8743C0.943953 72.6888 -1.29687e-07 71.7617 -8.91598e-08 70.8345Z" fill="#7D53F8"/>
<path d="M-8.91599e-08 90.4899C-4.05272e-08 89.3773 0.943953 88.4502 2.0767 88.4502C3.20944 88.4502 4.15339 89.3773 4.15339 90.4899C4.15339 91.6025 3.20944 92.5297 2.0767 92.5297C0.943953 92.3443 -1.37793e-07 91.6025 -8.91599e-08 90.4899Z" fill="#7D53F8"/>
<path d="M10.3834 62.1192C10.1946 61.7484 10.0059 61.3775 10.0059 61.0067C10.0059 60.0795 10.761 59.3378 11.5162 59.1523C11.705 59.1523 11.705 59.1523 11.8938 59.1523C13.0265 59.1523 13.9705 60.0795 13.9705 61.1921C13.9705 61.5629 13.7817 61.9338 13.5929 62.3047C13.2153 62.8609 12.6489 63.2318 11.8938 63.2318C11.705 63.2318 11.705 63.2318 11.5162 63.2318C11.1386 62.6755 10.5722 62.4901 10.3834 62.1192Z" fill="#7D53F8"/>
<path d="M50.0298 80.6623C50.0298 79.9206 50.4074 79.3643 50.9737 78.9934C51.3513 78.808 51.7289 78.6226 52.1065 78.6226C52.2953 78.6226 52.6729 78.6226 52.8616 78.808C53.6168 79.1788 53.9944 79.7351 53.9944 80.6623C53.9944 81.404 53.428 82.1457 52.8616 82.5166C52.6729 82.702 52.2953 82.702 52.1065 82.702C51.7289 82.702 51.3513 82.5166 50.9737 82.3312C50.4074 81.9603 50.0298 81.2186 50.0298 80.6623Z" fill="#7D53F8"/>
<path d="M30.0176 80.6623C30.0176 79.5497 30.9615 78.6226 32.0943 78.6226C33.227 78.6226 34.171 79.5497 34.171 80.6623C34.171 81.7749 33.227 82.702 32.0943 82.702C30.9615 82.5166 30.0176 81.7749 30.0176 80.6623Z" fill="#7D53F8"/>
<path d="M40.0239 70.8345C40.0239 69.722 40.9679 68.7948 42.1006 68.7948C43.2334 68.7948 44.1773 69.722 44.1773 70.8345C44.1773 71.9471 43.2334 72.8743 42.1006 72.8743C40.9679 72.6888 40.0239 71.7617 40.0239 70.8345Z" fill="#7D53F8"/>
<path d="M40.0239 90.4899C40.0239 89.3773 40.9679 88.4502 42.1006 88.4502C43.2334 88.4502 44.1773 89.3773 44.1773 90.4899C44.1773 91.6025 43.2334 92.5297 42.1006 92.5297C40.9679 92.3443 40.0239 91.6025 40.0239 90.4899Z" fill="#7D53F8"/>
<path d="M20.0112 70.8345C20.0112 69.722 20.9552 68.7948 22.0879 68.7948C23.2207 68.7948 24.1646 69.722 24.1646 70.8345C24.1646 71.9471 23.2207 72.8743 22.0879 72.8743C20.9552 72.6888 20.0112 71.7617 20.0112 70.8345Z" fill="#7D53F8"/>
<path d="M20.0112 90.4899C20.0112 89.3773 20.9552 88.4502 22.0879 88.4502C23.2207 88.4502 24.1646 89.3773 24.1646 90.4899C24.1646 91.6025 23.2207 92.5297 22.0879 92.5297C20.9552 92.3443 20.0112 91.6025 20.0112 90.4899Z" fill="#7D53F8"/>
<path d="M50.4074 62.1192C50.2186 61.7484 50.0298 61.3775 50.0298 61.0067C50.0298 60.2649 50.4074 59.7086 50.9737 59.3378C51.3513 59.1524 51.7289 58.9669 52.1065 58.9669C52.2953 58.9669 52.6729 58.9669 52.8616 59.1524C53.6168 59.5232 53.9944 60.0795 53.9944 61.0067C53.9944 61.3775 53.8056 61.7484 53.6168 62.1192C53.428 62.4901 53.0504 62.6755 52.6729 62.861C52.4841 63.0464 52.1065 63.0464 51.9177 63.0464C51.5401 63.0464 51.1625 62.861 50.7849 62.6755C50.7849 62.4901 50.5962 62.3047 50.4074 62.1192Z" fill="#7D53F8"/>
<path d="M30.3952 62.1192C30.2064 61.7484 30.0176 61.3775 30.0176 61.0067C30.0176 59.8941 30.9615 58.9669 32.0943 58.9669C33.227 58.9669 34.171 59.8941 34.171 61.0067C34.171 61.3775 33.9822 61.7484 33.7934 62.1192C33.4158 62.6755 32.8494 63.0464 32.0943 63.0464C31.3391 62.861 30.7727 62.4901 30.3952 62.1192Z" fill="#7D53F8"/>
<path d="M60.0352 70.8345C60.0352 69.722 60.9791 68.7948 62.1119 68.7948C63.2446 68.7948 64.1886 69.722 64.1886 70.8345C64.1886 71.9471 63.2446 72.8743 62.1119 72.8743C60.9791 72.6888 60.0352 71.7617 60.0352 70.8345Z" fill="#7D53F8"/>
<path d="M60.0352 90.4899C60.0352 89.3773 60.9791 88.4502 62.1119 88.4502C63.2446 88.4502 64.1886 89.3773 64.1886 90.4899C64.1886 91.6025 63.2446 92.5297 62.1119 92.5297C60.9791 92.3443 60.0352 91.6025 60.0352 90.4899Z" fill="#7D53F8"/>
<path d="M10.0059 41.3511C10.0059 40.424 10.761 39.6823 11.5162 39.4968C11.705 39.4968 11.705 39.4968 11.8938 39.4968C13.0265 39.4968 13.9705 40.424 13.9705 41.5366C13.9705 42.6491 13.0265 43.5763 11.8938 43.5763C11.705 43.5763 11.705 43.5763 11.5162 43.5763C10.761 43.02 10.0059 42.2783 10.0059 41.3511Z" fill="#7D53F8"/>
<path d="M-8.91597e-08 31.5231C-4.05271e-08 30.4106 0.943953 29.4834 2.0767 29.4834C3.20944 29.4834 4.15339 30.4106 4.15339 31.5231C4.15339 32.6357 3.20944 33.5629 2.0767 33.5629C0.943953 33.3774 -1.29687e-07 32.4503 -8.91597e-08 31.5231Z" fill="#7D53F8"/>
<path d="M-8.91599e-08 51.1789C-4.05272e-08 50.0663 0.943953 49.1392 2.0767 49.1392C3.20944 49.1392 4.15339 50.0663 4.15339 51.1789C4.15339 52.2915 3.20944 53.2186 2.0767 53.2186C0.943953 53.0332 -1.29687e-07 52.1061 -8.91599e-08 51.1789Z" fill="#7D53F8"/>
<path d="M10.0059 22.0661C10.0059 21.8807 10.0059 21.8807 10.0059 21.6952C10.0059 21.5098 10.0059 21.139 10.1946 20.9535C10.3834 20.3972 10.9498 19.8409 11.705 19.8409C11.8938 19.8409 11.8938 19.8409 12.0826 19.8409C12.8377 19.8409 13.5929 20.3972 13.9705 20.9535C14.1593 21.139 14.1593 21.5098 14.1593 21.6952C14.1593 21.8807 14.1593 21.8807 14.1593 22.0661C13.9705 22.9933 13.2153 23.5496 12.2713 23.5496C12.0826 23.5496 12.0826 23.5496 11.8938 23.5496C10.761 23.3641 10.1946 22.8078 10.0059 22.0661Z" fill="#7D53F8"/>
<path d="M50.0298 41.351C50.0298 40.6093 50.4074 40.053 50.9737 39.6821C51.3513 39.4967 51.7289 39.3113 52.1065 39.3113C52.2953 39.3113 52.6729 39.3113 52.8616 39.4967C53.6168 39.8676 53.9944 40.4239 53.9944 41.351C53.9944 42.0927 53.428 42.8345 52.8616 43.2053C52.6729 43.3907 52.2953 43.3907 52.1065 43.3907C51.7289 43.3907 51.3513 43.2053 50.9737 43.0199C50.4074 42.649 50.0298 41.9073 50.0298 41.351Z" fill="#7D53F8"/>
<path d="M30.0176 41.351C30.0176 40.2384 30.9615 39.3113 32.0943 39.3113C33.227 39.3113 34.171 40.2384 34.171 41.351C34.171 42.4636 33.227 43.3907 32.0943 43.3907C30.9615 43.2053 30.0176 42.2782 30.0176 41.351Z" fill="#7D53F8"/>
<path d="M40.0239 31.5231C40.0239 30.4106 40.9679 29.4834 42.1006 29.4834C43.2334 29.4834 44.1773 30.4106 44.1773 31.5231C44.1773 32.6357 43.2334 33.5629 42.1006 33.5629C40.9679 33.3774 40.0239 32.4503 40.0239 31.5231Z" fill="#7D53F8"/>
<path d="M40.0239 51.1789C40.0239 50.0663 40.9679 49.1392 42.1006 49.1392C43.2334 49.1392 44.1773 50.0663 44.1773 51.1789C44.1773 52.2915 43.2334 53.2186 42.1006 53.2186C40.9679 53.0332 40.0239 52.1061 40.0239 51.1789Z" fill="#7D53F8"/>
<path d="M20.0112 31.5231C20.0112 30.4106 20.9552 29.4834 22.0879 29.4834C23.2207 29.4834 24.1646 30.4106 24.1646 31.5231C24.1646 32.6357 23.2207 33.5629 22.0879 33.5629C20.9552 33.3774 20.0112 32.4503 20.0112 31.5231Z" fill="#7D53F8"/>
<path d="M20.0112 51.1789C20.0112 50.0663 20.9552 49.1392 22.0879 49.1392C23.2207 49.1392 24.1646 50.0663 24.1646 51.1789C24.1646 52.2915 23.2207 53.2186 22.0879 53.2186C20.9552 53.0332 20.0112 52.1061 20.0112 51.1789Z" fill="#7D53F8"/>
<path d="M50.0298 22.0664C50.0298 21.8809 50.0298 21.8809 50.0298 21.6955C50.0298 21.5101 50.0298 21.1392 50.2186 20.9538C50.4074 20.5829 50.5962 20.2121 50.9737 20.0266C51.3513 19.8412 51.7289 19.6558 52.1065 19.6558C52.2953 19.6558 52.6729 19.6558 52.8616 19.8412C53.428 20.0266 53.8056 20.3975 53.9944 20.9538C54.1832 21.1392 54.1832 21.5101 54.1832 21.6955C54.1832 21.8809 54.1832 21.8809 54.1832 22.0664C53.9944 22.6226 53.6168 23.1789 53.0504 23.5498C52.8616 23.7352 52.4841 23.7352 52.2953 23.7352C51.9177 23.7352 51.5401 23.5498 51.1625 23.3644C50.4074 22.9935 50.2186 22.6226 50.0298 22.0664Z" fill="#7D53F8"/>
<path d="M30.0176 22.0661C30.0176 21.8807 30.0176 21.8807 30.0176 21.6952C30.0176 21.5098 30.0176 21.139 30.2064 20.9535C30.584 20.2118 31.1503 19.8409 32.0943 19.8409C32.8494 19.8409 33.6046 20.3972 33.9822 20.9535C34.171 21.139 34.171 21.5098 34.171 21.6952C34.171 21.8807 34.171 21.8807 34.171 22.0661C33.9822 22.9933 33.227 23.5496 32.2831 23.5496C31.1503 23.5496 30.2064 22.9933 30.0176 22.0661Z" fill="#7D53F8"/>
<path d="M60.0352 31.5231C60.0352 30.4106 60.9791 29.4834 62.1119 29.4834C63.2446 29.4834 64.1886 30.4106 64.1886 31.5231C64.1886 32.6357 63.2446 33.5629 62.1119 33.5629C60.9791 33.3774 60.0352 32.4503 60.0352 31.5231Z" fill="#7D53F8"/>
<path d="M60.0352 51.1789C60.0352 50.0663 60.9791 49.1392 62.1119 49.1392C63.2446 49.1392 64.1886 50.0663 64.1886 51.1789C64.1886 52.2915 63.2446 53.2186 62.1119 53.2186C60.9791 53.0332 60.0352 52.1061 60.0352 51.1789Z" fill="#7D53F8"/>
<path d="M10.0059 2.03985C10.0059 1.1127 10.761 0.370977 11.5162 0.185547C11.705 0.185547 11.705 0.185547 11.8938 0.185547C13.0265 0.185547 13.9705 1.1127 13.9705 2.22528C13.9705 3.33786 13.0265 4.26502 11.8938 4.26502C11.705 4.26502 11.705 4.26502 11.5162 4.26502C10.761 3.70873 10.0059 2.967 10.0059 2.03985Z" fill="#7D53F8"/>
<path d="M-8.91597e-08 11.8676C-4.05271e-08 10.755 0.943953 9.82788 2.0767 9.82788C3.20944 9.82788 4.15339 10.755 4.15339 11.8676C4.15339 12.9802 3.20944 13.9074 2.0767 13.9074C0.943953 13.7219 -1.29687e-07 12.7948 -8.91597e-08 11.8676Z" fill="#7D53F8"/>
<path d="M50.0298 2.03974C50.0298 1.29801 50.4074 0.741722 50.9737 0.370861C51.1625 0.185431 51.5401 6.60184e-08 52.1065 9.07752e-08C52.2953 9.90275e-08 52.6729 1.15532e-07 52.8616 0.185431C53.6168 0.556292 53.9944 1.11258 53.9944 2.03974C53.9944 2.78146 53.428 3.52318 52.8616 3.89404C52.6729 4.07947 52.2953 4.07947 52.1065 4.07947C51.7289 4.07947 51.3513 3.89404 50.9737 3.70861C50.4074 3.15232 50.0298 2.59603 50.0298 2.03974Z" fill="#7D53F8"/>
<path d="M30.0176 2.03974C30.0176 0.927152 30.9615 4.12615e-08 32.0943 9.07753e-08C33.0382 1.32037e-07 33.9822 0.927152 33.9822 2.03974C33.9822 3.15232 33.0382 4.07947 31.9055 4.07947C30.9615 3.89404 30.0176 2.96689 30.0176 2.03974Z" fill="#7D53F8"/>
<path d="M40.0239 11.8676C40.0239 10.755 40.9679 9.82788 42.1006 9.82788C43.2334 9.82788 44.1773 10.755 44.1773 11.8676C44.1773 12.9802 43.2334 13.9074 42.1006 13.9074C40.9679 13.7219 40.0239 12.7948 40.0239 11.8676Z" fill="#7D53F8"/>
<path d="M20.0112 11.8676C20.0112 10.755 20.9552 9.82788 22.0879 9.82788C23.2207 9.82788 24.1646 10.755 24.1646 11.8676C24.1646 12.9802 23.2207 13.9074 22.0879 13.9074C20.9552 13.7219 20.0112 12.7948 20.0112 11.8676Z" fill="#7D53F8"/>
<path d="M60.0352 11.8676C60.0352 10.755 60.9791 9.82788 62.1119 9.82788C63.2446 9.82788 64.1886 10.755 64.1886 11.8676C64.1886 12.9802 63.2446 13.9074 62.1119 13.9074C60.9791 13.7219 60.0352 12.7948 60.0352 11.8676Z" fill="#7D53F8"/>
</g>
<defs>
<clipPath id="clip0_16_822">
<rect width="112" height="64" fill="white" transform="matrix(-4.37114e-08 1 1 4.37114e-08 0 0)"/>
</clipPath>
</defs>
</svg>
