<svg width="103" height="64" viewBox="0 0 103 64" fill="none" xmlns="http://www.w3.org/2000/svg">
<g clip-path="url(#clip0_16_778)">
<path d="M100.689 53.994C100.503 53.994 100.503 53.994 100.318 53.994C100.132 53.994 99.7616 53.994 99.5762 53.8052C99.0199 53.6164 98.4636 53.0501 98.4636 52.2949C98.4636 52.1061 98.4636 52.1061 98.4636 51.9173C98.4636 51.1622 99.0199 50.407 99.5762 50.0294C99.7616 49.8406 100.132 49.8406 100.318 49.8406C100.503 49.8406 100.503 49.8406 100.689 49.8406C101.616 50.0294 102.172 50.7846 102.172 51.7285C102.172 51.9173 102.172 51.9173 102.172 52.1061C101.987 53.2389 101.431 53.8052 100.689 53.994Z" fill="#7D53F8"/>
<path d="M100.689 13.9703C100.503 13.9703 100.503 13.9703 100.318 13.9703C100.132 13.9703 99.7615 13.9703 99.5761 13.7815C99.2052 13.5928 98.8344 13.404 98.6489 13.0264C98.4635 12.6488 98.2781 12.2712 98.2781 11.8936C98.2781 11.7048 98.2781 11.3273 98.4635 11.1385C98.6489 10.5721 99.0198 10.1945 99.5761 10.0057C99.7615 9.81694 100.132 9.81694 100.318 9.81694C100.503 9.81694 100.503 9.81694 100.689 9.81694C101.245 10.0057 101.801 10.3833 102.172 10.9497C102.358 11.1385 102.358 11.5161 102.358 11.7048C102.358 12.0824 102.172 12.46 101.987 12.8376C101.616 13.5928 101.245 13.7815 100.689 13.9703Z" fill="#7D53F8"/>
<path d="M100.689 33.9823C100.503 33.9823 100.503 33.9823 100.318 33.9823C100.132 33.9823 99.7616 33.9823 99.5762 33.7935C98.8345 33.4159 98.4636 32.8496 98.4636 31.9056C98.4636 31.1504 99.0199 30.3953 99.5762 30.0177C99.7616 29.8289 100.132 29.8289 100.318 29.8289C100.503 29.8289 100.503 29.8289 100.689 29.8289C101.616 30.0177 102.172 30.7729 102.172 31.7168C102.172 32.8496 101.616 33.7935 100.689 33.9823Z" fill="#7D53F8"/>
<path d="M80.6622 53.994C79.735 53.994 78.9933 53.2389 78.8079 52.4837C78.8079 52.2949 78.8079 52.2949 78.8079 52.1061C78.8079 50.9734 79.735 50.0294 80.8476 50.0294C81.9602 50.0294 82.8873 50.9734 82.8873 52.1061C82.8873 52.2949 82.8873 52.2949 82.8873 52.4837C82.3311 53.2389 81.5893 53.994 80.6622 53.994Z" fill="#7D53F8"/>
<path d="M70.8344 64C69.7218 64 68.7947 63.056 68.7947 61.9233C68.7947 60.7906 69.7218 59.8466 70.8344 59.8466C71.947 59.8466 72.8741 60.7906 72.8741 61.9233C72.6887 63.056 71.7616 64 70.8344 64Z" fill="#7D53F8"/>
<path d="M90.4899 64C89.3773 64 88.4502 63.056 88.4502 61.9233C88.4502 60.7906 89.3773 59.8466 90.4899 59.8466C91.6025 59.8466 92.5297 60.7906 92.5297 61.9233C92.3443 63.056 91.6025 64 90.4899 64Z" fill="#7D53F8"/>
<path d="M62.1192 53.6164C61.7484 53.8052 61.3775 53.994 61.0067 53.994C60.0795 53.994 59.3378 53.2389 59.1523 52.4837C59.1523 52.2949 59.1523 52.2949 59.1523 52.1061C59.1523 50.9734 60.0795 50.0294 61.1921 50.0294C61.5629 50.0294 61.9338 50.2182 62.3047 50.407C62.8609 50.7846 63.2318 51.351 63.2318 52.1061C63.2318 52.2949 63.2318 52.2949 63.2318 52.4837C62.6755 52.8613 62.4901 53.4276 62.1192 53.6164Z" fill="#7D53F8"/>
<path d="M80.6623 13.9703C79.9206 13.9703 79.3643 13.5928 78.9934 13.0264C78.808 12.6488 78.6226 12.2712 78.6226 11.8936C78.6226 11.7049 78.6226 11.3273 78.808 11.1385C79.1788 10.3833 79.7351 10.0057 80.6623 10.0057C81.404 10.0057 82.1457 10.5721 82.5166 11.1385C82.702 11.3273 82.702 11.7049 82.702 11.8936C82.702 12.2712 82.5166 12.6488 82.3312 13.0264C81.9603 13.5928 81.2186 13.9703 80.6623 13.9703Z" fill="#7D53F8"/>
<path d="M80.6623 33.9823C79.5497 33.9823 78.6226 33.0383 78.6226 31.9056C78.6226 30.7729 79.5497 29.8289 80.6623 29.8289C81.7749 29.8289 82.702 30.7729 82.702 31.9056C82.5166 33.0383 81.7749 33.9823 80.6623 33.9823Z" fill="#7D53F8"/>
<path d="M70.8344 23.9763C69.7218 23.9763 68.7947 23.0324 68.7947 21.8996C68.7947 20.7669 69.7218 19.8229 70.8344 19.8229C71.947 19.8229 72.8741 20.7669 72.8741 21.8996C72.6887 23.0324 71.7616 23.9763 70.8344 23.9763Z" fill="#7D53F8"/>
<path d="M90.4899 23.9763C89.3773 23.9763 88.4502 23.0324 88.4502 21.8996C88.4502 20.7669 89.3773 19.8229 90.4899 19.8229C91.6025 19.8229 92.5297 20.7669 92.5297 21.8996C92.3443 23.0324 91.6025 23.9763 90.4899 23.9763Z" fill="#7D53F8"/>
<path d="M70.8344 43.9888C69.7218 43.9888 68.7947 43.0448 68.7947 41.9121C68.7947 40.7793 69.7218 39.8354 70.8344 39.8354C71.947 39.8354 72.8741 40.7793 72.8741 41.9121C72.6887 43.0448 71.7616 43.9888 70.8344 43.9888Z" fill="#7D53F8"/>
<path d="M90.4899 43.9888C89.3773 43.9888 88.4502 43.0448 88.4502 41.9121C88.4502 40.7793 89.3773 39.8354 90.4899 39.8354C91.6025 39.8354 92.5297 40.7793 92.5297 41.9121C92.3443 43.0448 91.6025 43.9888 90.4899 43.9888Z" fill="#7D53F8"/>
<path d="M62.1191 13.5928C61.7483 13.7815 61.3774 13.9703 61.0065 13.9703C60.2648 13.9703 59.7085 13.5928 59.3377 13.0264C59.1522 12.6488 58.9668 12.2712 58.9668 11.8936C58.9668 11.7049 58.9668 11.3273 59.1522 11.1385C59.5231 10.3833 60.0794 10.0057 61.0065 10.0057C61.3774 10.0057 61.7483 10.1945 62.1191 10.3833C62.49 10.5721 62.6754 10.9497 62.8608 11.3273C63.0463 11.5161 63.0463 11.8936 63.0463 12.0824C63.0463 12.46 62.8608 12.8376 62.6754 13.2152C62.49 13.2152 62.3045 13.404 62.1191 13.5928Z" fill="#7D53F8"/>
<path d="M62.1191 33.6047C61.7483 33.7935 61.3774 33.9823 61.0065 33.9823C59.894 33.9823 58.9668 33.0383 58.9668 31.9056C58.9668 30.7729 59.894 29.8289 61.0065 29.8289C61.3774 29.8289 61.7483 30.0177 62.1191 30.2065C62.6754 30.5841 63.0463 31.1504 63.0463 31.9056C62.8608 32.6608 62.49 33.2271 62.1191 33.6047Z" fill="#7D53F8"/>
<path d="M70.8344 3.96497C69.7218 3.96497 68.7947 3.02101 68.7947 1.88826C68.7947 0.755511 69.7218 -0.188442 70.8344 -0.188442C71.947 -0.188442 72.8741 0.755511 72.8741 1.88826C72.6887 3.02101 71.7616 3.96497 70.8344 3.96497Z" fill="#7D53F8"/>
<path d="M90.4899 3.96497C89.3773 3.96497 88.4502 3.02101 88.4502 1.88826C88.4502 0.755511 89.3773 -0.188442 90.4899 -0.188442C91.6025 -0.188442 92.5297 0.755511 92.5297 1.88826C92.3443 3.02101 91.6025 3.96497 90.4899 3.96497Z" fill="#7D53F8"/>
<path d="M41.3511 53.994C40.424 53.994 39.6823 53.2389 39.4968 52.4837C39.4968 52.2949 39.4968 52.2949 39.4968 52.1061C39.4968 50.9734 40.424 50.0294 41.5366 50.0294C42.6491 50.0294 43.5763 50.9734 43.5763 52.1061C43.5763 52.2949 43.5763 52.2949 43.5763 52.4837C43.02 53.2389 42.2783 53.994 41.3511 53.994Z" fill="#7D53F8"/>
<path d="M31.5231 64C30.4106 64 29.4834 63.056 29.4834 61.9233C29.4834 60.7906 30.4106 59.8466 31.5231 59.8466C32.6357 59.8466 33.5629 60.7906 33.5629 61.9233C33.3774 63.056 32.4503 64 31.5231 64Z" fill="#7D53F8"/>
<path d="M51.1789 64C50.0663 64 49.1392 63.056 49.1392 61.9233C49.1392 60.7906 50.0663 59.8466 51.1789 59.8466C52.2915 59.8466 53.2186 60.7906 53.2186 61.9233C53.0332 63.056 52.1061 64 51.1789 64Z" fill="#7D53F8"/>
<path d="M22.0662 53.994C21.8808 53.994 21.8808 53.994 21.6954 53.994C21.5099 53.994 21.1391 53.994 20.9536 53.8052C20.3974 53.6164 19.8411 53.0501 19.8411 52.2949C19.8411 52.1061 19.8411 52.1061 19.8411 51.9173C19.8411 51.1622 20.3974 50.407 20.9536 50.0294C21.1391 49.8406 21.5099 49.8406 21.6954 49.8406C21.8808 49.8406 21.8808 49.8406 22.0662 49.8406C22.9934 50.0294 23.5497 50.7846 23.5497 51.7285C23.5497 51.9173 23.5497 51.9173 23.5497 52.1061C23.3642 53.2389 22.808 53.8052 22.0662 53.994Z" fill="#7D53F8"/>
<path d="M41.351 13.9703C40.6093 13.9703 40.053 13.5928 39.6821 13.0264C39.4967 12.6488 39.3113 12.2712 39.3113 11.8936C39.3113 11.7049 39.3113 11.3273 39.4967 11.1385C39.8676 10.3833 40.4239 10.0057 41.351 10.0057C42.0927 10.0057 42.8345 10.5721 43.2053 11.1385C43.3907 11.3273 43.3907 11.7049 43.3907 11.8936C43.3907 12.2712 43.2053 12.6488 43.0199 13.0264C42.649 13.5928 41.9073 13.9703 41.351 13.9703Z" fill="#7D53F8"/>
<path d="M41.351 33.9823C40.2384 33.9823 39.3113 33.0383 39.3113 31.9056C39.3113 30.7729 40.2384 29.8289 41.351 29.8289C42.4636 29.8289 43.3907 30.7729 43.3907 31.9056C43.2053 33.0383 42.2782 33.9823 41.351 33.9823Z" fill="#7D53F8"/>
<path d="M31.5231 23.9763C30.4106 23.9763 29.4834 23.0324 29.4834 21.8996C29.4834 20.7669 30.4106 19.8229 31.5231 19.8229C32.6357 19.8229 33.5629 20.7669 33.5629 21.8996C33.3774 23.0324 32.4503 23.9763 31.5231 23.9763Z" fill="#7D53F8"/>
<path d="M51.1789 23.9763C50.0663 23.9763 49.1392 23.0324 49.1392 21.8996C49.1392 20.7669 50.0663 19.8229 51.1789 19.8229C52.2915 19.8229 53.2186 20.7669 53.2186 21.8996C53.0332 23.0324 52.1061 23.9763 51.1789 23.9763Z" fill="#7D53F8"/>
<path d="M31.5231 43.9888C30.4106 43.9888 29.4834 43.0448 29.4834 41.9121C29.4834 40.7793 30.4106 39.8354 31.5231 39.8354C32.6357 39.8354 33.5629 40.7793 33.5629 41.9121C33.3774 43.0448 32.4503 43.9888 31.5231 43.9888Z" fill="#7D53F8"/>
<path d="M51.1789 43.9888C50.0663 43.9888 49.1392 43.0448 49.1392 41.9121C49.1392 40.7793 50.0663 39.8354 51.1789 39.8354C52.2915 39.8354 53.2186 40.7793 53.2186 41.9121C53.0332 43.0448 52.1061 43.9888 51.1789 43.9888Z" fill="#7D53F8"/>
<path d="M22.0664 13.9703C21.8809 13.9703 21.8809 13.9703 21.6955 13.9703C21.5101 13.9703 21.1392 13.9703 20.9538 13.7815C20.5829 13.5928 20.2121 13.404 20.0266 13.0264C19.8412 12.6488 19.6558 12.2712 19.6558 11.8936C19.6558 11.7048 19.6558 11.3273 19.8412 11.1385C20.0266 10.5721 20.3975 10.1945 20.9538 10.0057C21.1392 9.81694 21.5101 9.81694 21.6955 9.81694C21.8809 9.81694 21.8809 9.81694 22.0664 9.81694C22.6226 10.0057 23.1789 10.3833 23.5498 10.9497C23.7352 11.1385 23.7352 11.5161 23.7352 11.7048C23.7352 12.0824 23.5498 12.46 23.3644 12.8376C22.9935 13.5928 22.6226 13.7815 22.0664 13.9703Z" fill="#7D53F8"/>
<path d="M22.0662 33.9823C21.8808 33.9823 21.8808 33.9823 21.6954 33.9823C21.5099 33.9823 21.1391 33.9823 20.9536 33.7935C20.2119 33.4159 19.8411 32.8496 19.8411 31.9056C19.8411 31.1504 20.3974 30.3953 20.9536 30.0177C21.1391 29.8289 21.5099 29.8289 21.6954 29.8289C21.8808 29.8289 21.8808 29.8289 22.0662 29.8289C22.9934 30.0177 23.5497 30.7729 23.5497 31.7168C23.5497 32.8496 22.9934 33.7935 22.0662 33.9823Z" fill="#7D53F8"/>
<path d="M31.5231 3.96497C30.4106 3.96497 29.4834 3.02101 29.4834 1.88826C29.4834 0.755511 30.4106 -0.188442 31.5231 -0.188442C32.6357 -0.188442 33.5629 0.755511 33.5629 1.88826C33.3774 3.02101 32.4503 3.96497 31.5231 3.96497Z" fill="#7D53F8"/>
<path d="M51.1789 3.96497C50.0663 3.96497 49.1392 3.02101 49.1392 1.88826C49.1392 0.755511 50.0663 -0.188442 51.1789 -0.188442C52.2915 -0.188442 53.2186 0.755511 53.2186 1.88826C53.0332 3.02101 52.1061 3.96497 51.1789 3.96497Z" fill="#7D53F8"/>
<path d="M2.03985 53.994C1.1127 53.994 0.370977 53.2389 0.185547 52.4837C0.185547 52.2949 0.185547 52.2949 0.185547 52.1061C0.185547 50.9734 1.1127 50.0294 2.22528 50.0294C3.33786 50.0294 4.26502 50.9734 4.26502 52.1061C4.26502 52.2949 4.26502 52.2949 4.26502 52.4837C3.70873 53.2389 2.967 53.994 2.03985 53.994Z" fill="#7D53F8"/>
<path d="M11.8676 64C10.755 64 9.82788 63.056 9.82788 61.9233C9.82788 60.7906 10.755 59.8466 11.8676 59.8466C12.9802 59.8466 13.9074 60.7906 13.9074 61.9233C13.7219 63.056 12.7948 64 11.8676 64Z" fill="#7D53F8"/>
<path d="M2.03974 13.9703C1.29801 13.9703 0.741722 13.5928 0.370861 13.0264C0.18543 12.8376 0 12.46 0 11.8936C0 11.7049 0 11.3273 0.18543 11.1385C0.556291 10.3833 1.11258 10.0057 2.03974 10.0057C2.78146 10.0057 3.52318 10.5721 3.89404 11.1385C4.07947 11.3273 4.07947 11.7049 4.07947 11.8936C4.07947 12.2712 3.89404 12.6488 3.70861 13.0264C3.15232 13.5928 2.59603 13.9703 2.03974 13.9703Z" fill="#7D53F8"/>
<path d="M2.03974 33.9823C0.927152 33.9823 0 33.0383 0 31.9056C0 30.9617 0.927152 30.0177 2.03974 30.0177C3.15232 30.0177 4.07947 30.9617 4.07947 32.0944C3.89404 33.0383 2.96689 33.9823 2.03974 33.9823Z" fill="#7D53F8"/>
<path d="M11.8676 23.9763C10.755 23.9763 9.82788 23.0324 9.82788 21.8996C9.82788 20.7669 10.755 19.8229 11.8676 19.8229C12.9802 19.8229 13.9074 20.7669 13.9074 21.8996C13.7219 23.0324 12.7948 23.9763 11.8676 23.9763Z" fill="#7D53F8"/>
<path d="M11.8676 43.9888C10.755 43.9888 9.82788 43.0448 9.82788 41.9121C9.82788 40.7793 10.755 39.8354 11.8676 39.8354C12.9802 39.8354 13.9074 40.7793 13.9074 41.9121C13.7219 43.0448 12.7948 43.9888 11.8676 43.9888Z" fill="#7D53F8"/>
<path d="M11.8676 3.96497C10.755 3.96497 9.82788 3.02101 9.82788 1.88826C9.82788 0.755511 10.755 -0.188442 11.8676 -0.188442C12.9802 -0.188442 13.9074 0.755511 13.9074 1.88826C13.7219 3.02101 12.7948 3.96497 11.8676 3.96497Z" fill="#7D53F8"/>
</g>
<defs>
<clipPath id="clip0_16_778">
<rect width="112" height="64" fill="white" transform="matrix(1 0 0 -1 0 64)"/>
</clipPath>
</defs>
</svg>
