<svg width="101" height="87" viewBox="0 0 101 87" fill="none" xmlns="http://www.w3.org/2000/svg">
<circle cx="98.8826" cy="1.8913" r="1.8913" transform="rotate(90 98.8826 1.8913)" fill="#0E092A"/>
<circle cx="98.8826" cy="18.5349" r="1.8913" transform="rotate(90 98.8826 18.5349)" fill="#0E092A"/>
<circle cx="98.8826" cy="35.1784" r="1.8913" transform="rotate(90 98.8826 35.1784)" fill="#0E092A"/>
<circle cx="98.8826" cy="51.822" r="1.8913" transform="rotate(90 98.8826 51.822)" fill="#0E092A"/>
<circle cx="98.8826" cy="68.4655" r="1.8913" transform="rotate(90 98.8826 68.4655)" fill="#0E092A"/>
<circle cx="98.8826" cy="85.1091" r="1.8913" transform="rotate(90 98.8826 85.1091)" fill="#0E092A"/>
<circle cx="85.2654" cy="1.8913" r="1.8913" transform="rotate(90 85.2654 1.8913)" fill="#0E092A"/>
<circle cx="85.2654" cy="18.5349" r="1.8913" transform="rotate(90 85.2654 18.5349)" fill="#0E092A"/>
<circle cx="85.2654" cy="35.1784" r="1.8913" transform="rotate(90 85.2654 35.1784)" fill="#0E092A"/>
<circle cx="85.2654" cy="51.822" r="1.8913" transform="rotate(90 85.2654 51.822)" fill="#0E092A"/>
<circle cx="85.2654" cy="68.4655" r="1.8913" transform="rotate(90 85.2654 68.4655)" fill="#0E092A"/>
<circle cx="85.2654" cy="85.1091" r="1.8913" transform="rotate(90 85.2654 85.1091)" fill="#0E092A"/>
<circle cx="70.8909" cy="1.8913" r="1.8913" transform="rotate(90 70.8909 1.8913)" fill="#0E092A"/>
<circle cx="70.8909" cy="18.5349" r="1.8913" transform="rotate(90 70.8909 18.5349)" fill="#0E092A"/>
<circle cx="70.8909" cy="35.1784" r="1.8913" transform="rotate(90 70.8909 35.1784)" fill="#0E092A"/>
<circle cx="70.8909" cy="51.822" r="1.8913" transform="rotate(90 70.8909 51.822)" fill="#0E092A"/>
<circle cx="70.8909" cy="68.4655" r="1.8913" transform="rotate(90 70.8909 68.4655)" fill="#0E092A"/>
<circle cx="70.8909" cy="85.1091" r="1.8913" transform="rotate(90 70.8909 85.1091)" fill="#0E092A"/>
<circle cx="57.2737" cy="1.8913" r="1.8913" transform="rotate(90 57.2737 1.8913)" fill="#0E092A"/>
<circle cx="57.2737" cy="18.5349" r="1.8913" transform="rotate(90 57.2737 18.5349)" fill="#0E092A"/>
<circle cx="57.2737" cy="35.1784" r="1.8913" transform="rotate(90 57.2737 35.1784)" fill="#0E092A"/>
<circle cx="57.2737" cy="51.822" r="1.8913" transform="rotate(90 57.2737 51.822)" fill="#0E092A"/>
<circle cx="57.2737" cy="68.4655" r="1.8913" transform="rotate(90 57.2737 68.4655)" fill="#0E092A"/>
<circle cx="57.2737" cy="85.1091" r="1.8913" transform="rotate(90 57.2737 85.1091)" fill="#0E092A"/>
<circle cx="43.6565" cy="1.8913" r="1.8913" transform="rotate(90 43.6565 1.8913)" fill="#0E092A"/>
<circle cx="43.6565" cy="18.5349" r="1.8913" transform="rotate(90 43.6565 18.5349)" fill="#0E092A"/>
<circle cx="43.6565" cy="35.1784" r="1.8913" transform="rotate(90 43.6565 35.1784)" fill="#0E092A"/>
<circle cx="43.6565" cy="51.822" r="1.8913" transform="rotate(90 43.6565 51.822)" fill="#0E092A"/>
<circle cx="43.6565" cy="68.4655" r="1.8913" transform="rotate(90 43.6565 68.4655)" fill="#0E092A"/>
<circle cx="43.6565" cy="85.1091" r="1.8913" transform="rotate(90 43.6565 85.1091)" fill="#0E092A"/>
<circle cx="30.0394" cy="1.8913" r="1.8913" transform="rotate(90 30.0394 1.8913)" fill="#0E092A"/>
<circle cx="30.0394" cy="18.5349" r="1.8913" transform="rotate(90 30.0394 18.5349)" fill="#0E092A"/>
<circle cx="30.0394" cy="35.1784" r="1.8913" transform="rotate(90 30.0394 35.1784)" fill="#0E092A"/>
<circle cx="30.0394" cy="51.822" r="1.8913" transform="rotate(90 30.0394 51.822)" fill="#0E092A"/>
<circle cx="30.0394" cy="68.4655" r="1.8913" transform="rotate(90 30.0394 68.4655)" fill="#0E092A"/>
<circle cx="30.0394" cy="85.1091" r="1.8913" transform="rotate(90 30.0394 85.1091)" fill="#0E092A"/>
<circle cx="15.6653" cy="1.8913" r="1.8913" transform="rotate(90 15.6653 1.8913)" fill="#0E092A"/>
<circle cx="15.6653" cy="18.5349" r="1.8913" transform="rotate(90 15.6653 18.5349)" fill="#0E092A"/>
<circle cx="15.6653" cy="35.1784" r="1.8913" transform="rotate(90 15.6653 35.1784)" fill="#0E092A"/>
<circle cx="15.6653" cy="51.822" r="1.8913" transform="rotate(90 15.6653 51.822)" fill="#0E092A"/>
<circle cx="15.6653" cy="68.4655" r="1.8913" transform="rotate(90 15.6653 68.4655)" fill="#0E092A"/>
<circle cx="15.6653" cy="85.1091" r="1.8913" transform="rotate(90 15.6653 85.1091)" fill="#0E092A"/>
<circle cx="2.04766" cy="1.8913" r="1.8913" transform="rotate(90 2.04766 1.8913)" fill="#0E092A"/>
<circle cx="2.04766" cy="18.5349" r="1.8913" transform="rotate(90 2.04766 18.5349)" fill="#0E092A"/>
<circle cx="2.04766" cy="35.1784" r="1.8913" transform="rotate(90 2.04766 35.1784)" fill="#0E092A"/>
<circle cx="2.04766" cy="51.822" r="1.8913" transform="rotate(90 2.04766 51.822)" fill="#0E092A"/>
<circle cx="2.04766" cy="68.4655" r="1.8913" transform="rotate(90 2.04766 68.4655)" fill="#0E092A"/>
<circle cx="2.04766" cy="85.1091" r="1.8913" transform="rotate(90 2.04766 85.1091)" fill="#0E092A"/>
</svg>
