<svg width="110" height="257" viewBox="0 0 110 257" fill="none" xmlns="http://www.w3.org/2000/svg">
<path d="M55.5565 34.6266L-4.57982 0.376683C-5.46173 -0.125561 -6.53854 -0.125561 -7.42044 0.376683L-67.5567 34.6266C-68.4502 35.1348 -69 36.0823 -69 37.1041V99.8958C-69 100.918 -68.4502 101.865 -67.5567 102.373L-7.42044 136.623C-6.97935 136.875 -6.49263 137 -5.99999 137C-5.50736 137 -5.02063 136.875 -4.57954 136.623L55.5567 102.373C56.4502 101.865 57 100.918 57 99.8958V37.1041C56.9997 36.0823 56.4499 35.1348 55.5565 34.6266Z" fill="#624BA6"/>
<path d="M107.704 113.964L107.705 113.964C107.979 114.118 108.227 114.304 108.445 114.517L108.794 114.158C109.304 114.655 109.671 115.276 109.859 115.956L109.377 116.089C109.457 116.382 109.5 116.688 109.5 117V119.444H110V124.333H109.5V129.222H110V134.111H109.5V139H110V143.889H109.5V148.778H110V153.667H109.5V158.556H110V163.444H109.5V168.333H110V173.222H109.5V178.111H110V183H109.5V187.889H110V192.778H109.5V197.667H110V202.556H109.5V205C109.5 205.312 109.458 205.618 109.377 205.911L109.859 206.044C109.671 206.724 109.304 207.345 108.794 207.842L108.445 207.483C108.227 207.696 107.979 207.882 107.705 208.036L107.705 208.036L105.569 209.236L105.814 209.672L101.542 212.072L101.297 211.636L97.0258 214.036L97.2707 214.472L92.9991 216.872L92.7542 216.436L88.4826 218.836L88.7275 219.272L84.4559 221.672L84.211 221.236L79.9394 223.636L80.1843 224.072L75.9128 226.472L75.6678 226.036L71.3963 228.436L71.6412 228.872L67.3696 231.272L67.1247 230.836L62.8531 233.236L63.098 233.672L58.8264 236.072L58.5815 235.636L54.3099 238.036L54.5548 238.472L50.2832 240.872L50.0383 240.436L45.7667 242.836L46.0117 243.272L41.7401 245.672L41.4952 245.236L37.2236 247.636L37.4685 248.072L33.1969 250.472L32.952 250.036L28.6804 252.436L28.9253 252.872L24.6537 255.272L24.4088 254.836L22.273 256.036C22.1369 256.113 21.9975 256.18 21.8556 256.237L22.0432 256.7C21.7145 256.833 21.373 256.922 21.0258 256.967L20.9624 256.471C20.8094 256.49 20.655 256.5 20.5 256.5C20.345 256.5 20.1906 256.49 20.0376 256.471L19.9742 256.967C19.627 256.922 19.2855 256.833 18.9568 256.7L19.1444 256.237C19.0025 256.18 18.8631 256.113 18.727 256.036L16.5912 254.836L16.3463 255.272L12.0747 252.872L12.3196 252.436L8.04802 250.036L7.8031 250.472L3.53152 248.072L3.77644 247.636L-0.495148 245.236L-0.740067 245.672L-5.01165 243.272L-4.76674 242.836L-9.03832 240.436L-9.28324 240.872L-13.5548 238.472L-13.3099 238.036L-17.5815 235.636L-17.8264 236.072L-22.098 233.672L-21.8531 233.236L-26.1247 230.836L-26.3696 231.272L-30.6412 228.872L-30.3963 228.436L-34.6678 226.036L-34.9128 226.472L-39.1843 224.072L-38.9394 223.636L-43.211 221.236L-43.4559 221.672L-47.7275 219.272L-47.4826 218.836L-51.7542 216.436L-51.9991 216.872L-56.2707 214.472L-56.0258 214.036L-60.2973 211.636L-60.5423 212.072L-64.8138 209.672L-64.5689 209.236L-66.7047 208.036L-66.705 208.036C-66.9793 207.882 -67.2273 207.696 -67.4454 207.483L-67.7941 207.842C-68.3041 207.345 -68.6715 206.724 -68.8588 206.044L-68.3767 205.911C-68.4576 205.618 -68.5 205.312 -68.5 205V202.556H-69V197.667H-68.5V192.778H-69V187.889H-68.5V183H-69V178.111H-68.5V173.222H-69V168.333H-68.5V163.444H-69V158.556H-68.5V153.667H-69V148.778H-68.5V143.889H-69V139H-68.5V134.111H-69V129.222H-68.5V124.333H-69V119.444H-68.5V117C-68.5 116.688 -68.4576 116.382 -68.3767 116.089L-68.8588 115.956C-68.6715 115.276 -68.3041 114.655 -67.7941 114.158L-67.4454 114.517C-67.2273 114.304 -66.9793 114.118 -66.705 113.964L-66.7047 113.964L-64.5689 112.764L-64.8138 112.328L-60.5423 109.928L-60.2973 110.364L-56.0258 107.964L-56.2707 107.528L-51.9991 105.128L-51.7542 105.564L-47.4826 103.164L-47.7275 102.728L-43.4559 100.328L-43.211 100.764L-38.9394 98.3638L-39.1843 97.9279L-34.9128 95.5279L-34.6678 95.9638L-30.3962 93.5638L-30.6412 93.1279L-26.3696 90.7279L-26.1247 91.1638L-21.8531 88.7638L-22.098 88.3279L-17.8264 85.9279L-17.5815 86.3638L-13.3099 83.9638L-13.5548 83.5279L-9.28324 81.1279L-9.03833 81.5638L-4.76674 79.1638L-5.01165 78.7279L-0.740067 76.3279L-0.495155 76.7638L3.77643 74.3638L3.53152 73.9279L7.8031 71.5279L8.04802 71.9638L12.3196 69.5638L12.0747 69.1279L16.3463 66.7279L16.5912 67.1638L18.727 65.9638C19.0001 65.8104 19.288 65.6951 19.5835 65.6178L19.457 65.1341C20.1404 64.9553 20.8592 64.9553 21.5427 65.1341L21.4161 65.6178C21.7116 65.6951 21.9995 65.8104 22.2726 65.9638L24.4084 67.1638L24.6533 66.7279L28.9249 69.1279L28.68 69.5638L32.9516 71.9638L33.1965 71.5279L37.4681 73.9279L37.2232 74.3638L41.4948 76.7638L41.7397 76.3279L46.0113 78.7279L45.7663 79.1638L50.0379 81.5638L50.2829 81.1279L54.5544 83.5279L54.3095 83.9638L58.5811 86.3638L58.826 85.9279L63.0976 88.3279L62.8527 88.7638L67.1243 91.1638L67.3692 90.7279L71.6408 93.1279L71.3959 93.5638L75.6674 95.9638L75.9124 95.5279L80.1839 97.9279L79.939 98.3638L84.2106 100.764L84.4555 100.328L88.7271 102.728L88.4822 103.164L92.7538 105.564L92.9987 105.128L97.2703 107.528L97.0254 107.964L101.297 110.364L101.542 109.928L105.813 112.328L105.569 112.764L107.704 113.964Z" stroke="#7D53F8" stroke-dasharray="5 5"/>
</svg>
