<svg width="66" height="154" viewBox="0 0 66 154" fill="none" xmlns="http://www.w3.org/2000/svg">
<path d="M107.506 30.0075L107.506 30.0076C107.659 30.0931 107.796 30.1965 107.917 30.3141L108.266 29.956C108.576 30.2585 108.8 30.6369 108.914 31.0513L108.432 31.184C108.477 31.3462 108.5 31.5153 108.5 31.6875C108.5 31.6875 108.5 31.6876 108.5 31.6876V34.3687H109V39.7312H108.5V45.0937H109V50.4562H108.5V55.8187H109V61.1812H108.5V66.5437H109V71.9062H108.5V77.2687H109V82.6312H108.5V85.3125C108.5 85.4847 108.477 85.6538 108.432 85.816L108.914 85.9486C108.8 86.363 108.576 86.7415 108.266 87.044L107.917 86.6859C107.796 86.8035 107.659 86.9069 107.507 86.9923L107.506 86.9925L105.339 88.2112L105.584 88.647L101.249 91.0845L101.004 90.6487L96.6684 93.0862L96.9134 93.522L92.5782 95.9595L92.3331 95.5237L87.9979 97.9612L88.243 98.397L83.9077 100.835L83.6627 100.399L79.3275 102.836L79.5725 103.272L75.2373 105.71L74.9923 105.274L70.657 107.711L70.9021 108.147L66.5669 110.585L66.3218 110.149L61.9866 112.586L62.2316 113.022L57.8964 115.46L57.6514 115.024L55.4838 116.242L55.7288 116.678L55.4837 116.242C55.4081 116.285 55.3307 116.322 55.252 116.354L55.4397 116.817C55.2396 116.899 55.0316 116.953 54.8202 116.98L54.7567 116.484C54.6719 116.495 54.5861 116.5 54.5 116.5C54.4139 116.5 54.3282 116.495 54.2433 116.484L54.1798 116.98C53.9684 116.953 53.7604 116.899 53.5603 116.817L53.748 116.354C53.6693 116.322 53.5919 116.285 53.5163 116.242L53.2712 116.678L53.5163 116.242L51.3486 115.024L51.1036 115.46L46.7684 113.022L47.0134 112.586L42.6782 110.149L42.4332 110.585L38.0979 108.147L38.343 107.711L34.0078 105.274L33.7627 105.71L29.4275 103.272L29.6725 102.836L25.3373 100.399L25.0923 100.835L20.757 98.397L21.0021 97.9612L16.6669 95.5237L16.4218 95.9595L12.0866 93.522L12.3316 93.0862L7.99643 90.6487L7.75138 91.0845L3.41615 88.647L3.6612 88.2112L1.49359 86.9925L1.49332 86.9923C1.34119 86.9069 1.20381 86.8035 1.08312 86.6859L0.734175 87.044C0.423697 86.7415 0.2 86.363 0.0859628 85.9487L0.56804 85.816C0.523397 85.6538 0.5 85.4847 0.5 85.3125V82.6312H0V77.2687H0.5V71.9062H0V66.5437H0.5V61.1812H0V55.8187H0.5V50.4562H0V45.0937H0.5V39.7312H0V34.3687H0.5V31.6875C0.5 31.5152 0.523397 31.3462 0.56804 31.184L0.0859634 31.0513C0.200001 30.6369 0.423698 30.2585 0.734176 29.956L1.08312 30.3141C1.20381 30.1965 1.34119 30.0931 1.49333 30.0076L1.49359 30.0075L3.6612 28.7887L3.41615 28.3529L7.75137 25.9154L7.99642 26.3512L12.3316 23.9137L12.0866 23.4779L16.4218 21.0404L16.6669 21.4762L21.0021 19.0388L20.757 18.6029L25.0923 16.1654L25.3373 16.6013L29.6725 14.1638L29.4275 13.7279L33.7627 11.2904L34.0078 11.7263L38.343 9.28876L38.0979 8.85293L42.4331 6.41543L42.6782 6.85127L47.0134 4.41377L46.7684 3.97794L51.1036 1.54044L51.3486 1.97627L53.5162 0.757534C53.6678 0.672319 53.8276 0.608305 53.9914 0.565407L53.8648 0.0817032C54.281 -0.0272344 54.7188 -0.0272344 55.1349 0.0817032L55.0083 0.565407C55.1722 0.608305 55.332 0.672319 55.4835 0.757526L57.6511 1.97627L57.8962 1.54044L62.2314 3.97794L61.9863 4.41377L66.3216 6.85127L66.5666 6.41543L70.9018 8.85293L70.6568 9.28876L74.992 11.7263L75.2371 11.2904L79.5723 13.7279L79.3272 14.1638L83.6625 16.6013L83.9075 16.1654L88.2427 18.6029L87.9977 19.0388L92.3329 21.4762L92.5779 21.0404L96.9132 23.4779L96.6681 23.9137L101.003 26.3512L101.248 25.9154L105.584 28.3529L105.339 28.7887L107.506 30.0075Z" stroke="#7D53F8" stroke-dasharray="5 5"/>
<path d="M125.015 84.5057L83.9693 61.2557C83.3674 60.9148 82.6324 60.9148 82.0305 61.2557L40.9851 84.5057C40.3753 84.8506 40 85.4938 40 86.1875V128.812C40 129.506 40.3753 130.149 40.9851 130.494L82.0305 153.744C82.3316 153.915 82.6638 154 83 154C83.3362 154 83.6685 153.915 83.9695 153.744L125.015 130.494C125.625 130.149 126 129.506 126 128.812V86.1875C126 85.4938 125.625 84.8506 125.015 84.5057Z" fill="#624BA6"/>
</svg>
