<svg width="72" height="171" viewBox="0 0 72 171" fill="none" xmlns="http://www.w3.org/2000/svg">
<path d="M106.175 111.967L71.8115 92.2172C71.3076 91.9276 70.6923 91.9276 70.1883 92.2172L35.8247 111.967C35.3142 112.26 35 112.807 35 113.396V149.604C35 150.193 35.3142 150.74 35.8247 151.033L70.1883 170.783C70.4404 170.928 70.7185 171 71 171C71.2815 171 71.5596 170.928 71.8117 170.783L106.175 151.033C106.686 150.74 107 150.193 107 149.604V113.396C107 112.807 106.686 112.26 106.175 111.967Z" fill="#624BA6"/>
<path d="M119.369 33.2931L119.369 33.2933C119.542 33.3906 119.698 33.5084 119.836 33.6425L120.185 33.2846C120.53 33.6207 120.778 34.0412 120.904 34.5016L120.422 34.6342C120.473 34.8192 120.5 35.0119 120.5 35.2083C120.5 35.2084 120.5 35.2084 120.5 35.2084V37.6909H121V42.6562H120.5V47.6215H121V52.5868H120.5V57.5521H121V62.5173H120.5V67.4826H121V72.4479H120.5V77.4132H121V82.3784H120.5V87.3437H121V92.309H120.5V94.7916C120.5 94.988 120.473 95.1808 120.423 95.3658L120.905 95.4983C120.778 95.9587 120.53 96.3792 120.185 96.7154L119.836 96.3575C119.699 96.4915 119.542 96.6094 119.369 96.7067L119.369 96.7068L117.306 97.8675L117.552 98.3033L113.427 100.625L113.181 100.189L109.056 102.51L109.302 102.946L105.177 105.268L104.931 104.832L100.806 107.153L101.052 107.589L96.9265 109.91L96.6813 109.475L92.5563 111.796L92.8015 112.232L88.6766 114.553L88.4313 114.118L84.3063 116.439L84.5516 116.875L80.4266 119.196L80.1813 118.76L76.0563 121.082L76.3016 121.518L72.1766 123.839L71.9314 123.403L67.8064 125.725L68.0516 126.16L63.9266 128.482L63.6814 128.046L61.6189 129.207C61.5329 129.255 61.4449 129.297 61.3553 129.334L61.5432 129.797C61.321 129.887 61.0902 129.947 60.8555 129.977L60.7919 129.481C60.6954 129.494 60.5979 129.5 60.5 129.5C60.4021 129.5 60.3046 129.494 60.2081 129.481L60.1445 129.977C59.9098 129.947 59.679 129.887 59.4568 129.797L59.6447 129.334C59.5551 129.297 59.4671 129.255 59.3812 129.207L57.3186 128.046L57.0734 128.482L52.9484 126.16L53.1936 125.725L49.0687 123.403L48.8234 123.839L44.6984 121.518L44.9437 121.082L40.8187 118.76L40.5734 119.196L36.4484 116.875L36.6937 116.439L32.5687 114.118L32.3235 114.553L28.1985 112.232L28.4437 111.796L24.3187 109.475L24.0735 109.91L19.9485 107.589L20.1937 107.153L16.0687 104.832L15.8235 105.268L11.6985 102.946L11.9437 102.51L7.81871 100.189L7.57349 100.625L3.4485 98.3033L3.69372 97.8675L1.63122 96.7068L1.63095 96.7067C1.45781 96.6094 1.30141 96.4915 1.16398 96.3575L0.814845 96.7154C0.470224 96.3792 0.221937 95.9587 0.0953791 95.4983L0.577495 95.3658C0.526651 95.1808 0.5 94.988 0.5 94.7916V92.309H0V87.3437H0.5V82.3784H0V77.4132H0.5V72.4479H0V67.4826H0.5V62.5173H0V57.5521H0.5V52.5868H0V47.6215H0.5V42.6562H0V37.6909H0.5V35.2083C0.5 35.0119 0.526651 34.8191 0.577496 34.6341L0.0953789 34.5016C0.221937 34.0412 0.470223 33.6207 0.814844 33.2846L1.16398 33.6425C1.30141 33.5084 1.45781 33.3906 1.63095 33.2933L1.63122 33.2931L3.69372 32.1324L3.4485 31.6967L7.57349 29.3753L7.81871 29.811L11.9437 27.4896L11.6985 27.0538L15.8235 24.7324L16.0687 25.1681L20.1937 22.8467L19.9485 22.411L24.0735 20.0896L24.3187 20.5253L28.4437 18.2039L28.1985 17.7681L32.3235 15.4467L32.5687 15.8824L36.6937 13.561L36.4485 13.1253L40.5734 10.8039L40.8187 11.2396L44.9437 8.91816L44.6984 8.48242L48.8234 6.161L49.0687 6.59674L53.1936 4.27531L52.9484 3.83957L57.0734 1.51815L57.3186 1.95389L59.3811 0.793181C59.5535 0.696177 59.7352 0.623302 59.9216 0.574465L59.7949 0.0907913C60.2569 -0.0302638 60.7429 -0.0302638 61.2049 0.0907913L61.0782 0.574465C61.2645 0.623302 61.4462 0.696177 61.6186 0.793173L63.6811 1.95389L63.9263 1.51815L68.0513 3.83957L67.8061 4.27531L71.9311 6.59674L72.1763 6.161L76.3013 8.48243L76.0561 8.91816L80.1811 11.2396L80.4263 10.8039L84.5513 13.1253L84.3061 13.561L88.4311 15.8824L88.6763 15.4467L92.8013 17.7681L92.5561 18.2039L96.6811 20.5253L96.9263 20.0896L101.051 22.411L100.806 22.8467L104.931 25.1681L105.176 24.7324L109.301 27.0538L109.056 27.4896L113.181 29.811L113.426 29.3753L117.551 31.6967L117.306 32.1324L119.369 33.2931Z" stroke="#7D53F8" stroke-dasharray="5 5"/>
</svg>
