<svg width="55" height="62" viewBox="0 0 55 62" fill="none" xmlns="http://www.w3.org/2000/svg">
<g filter="url(#filter0_d_2249_2)">
<path d="M48.5417 18.9154L29.4509 7.91541C29.1709 7.75411 28.829 7.75411 28.5491 7.91541L9.45818 18.9154C9.17455 19.0786 9 19.3829 9 19.7111V39.8778C9 40.206 9.17455 40.5103 9.45818 40.6735L28.5491 51.6734C28.6891 51.7541 28.8436 51.7944 29 51.7944C29.1564 51.7944 29.3109 51.7541 29.4509 51.6734L48.5418 40.6735C48.8255 40.5103 49 40.206 49 39.8778V19.7111C48.9999 19.3829 48.8254 19.0786 48.5417 18.9154Z" fill="#7D53F8"/>
</g>
<g clip-path="url(#clip0_2249_2)">
<path d="M35.6328 24.4898H34.4843V23.2593C34.4843 22.4516 33.871 21.7944 33.1172 21.7944H24.3672C23.6133 21.7944 23 22.4516 23 23.2593V32.6342C23 33.4419 23.6133 34.0991 24.3672 34.0991H25.5156V35.3296C25.5156 36.1373 26.129 36.7944 26.8828 36.7944H35.6328C36.3867 36.7944 37 36.1373 37 35.3296V25.9546C37 25.1469 36.3867 24.4898 35.6328 24.4898ZM24.3672 33.5131C23.9149 33.5131 23.5469 33.1189 23.5469 32.6342V23.2593C23.5469 22.7746 23.9149 22.3804 24.3672 22.3804H33.1172C33.5695 22.3804 33.9375 22.7746 33.9375 23.2593V32.6342C33.9375 33.1189 33.5695 33.5131 33.1172 33.5131H24.3672ZM36.4531 35.3296C36.4531 35.8142 36.0851 36.2085 35.6328 36.2085H26.8828C26.4305 36.2085 26.0625 35.8142 26.0625 35.3296V34.0991H33.1172C33.871 34.0991 34.4843 33.4419 34.4843 32.6342V25.0757H35.6328C36.0851 25.0757 36.4531 25.47 36.4531 25.9546V35.3296Z" fill="white"/>
<path d="M26.8897 35.1831H26.8823C26.7313 35.1831 26.6089 35.3143 26.6089 35.4761C26.6089 35.6379 26.7313 35.769 26.8823 35.769H26.8897C27.0407 35.769 27.1631 35.6379 27.1631 35.4761C27.1631 35.3143 27.0408 35.1831 26.8897 35.1831Z" fill="white"/>
<path d="M35.6335 35.1831H27.6753C27.5243 35.1831 27.4019 35.3143 27.4019 35.4761C27.4019 35.6379 27.5243 35.769 27.6753 35.769H35.6335C35.7845 35.769 35.9069 35.6379 35.9069 35.4761C35.9069 35.3143 35.7845 35.1831 35.6335 35.1831Z" fill="white"/>
<path d="M26.0088 22.8198H26.0015C25.8504 22.8198 25.728 22.951 25.728 23.1128C25.728 23.2746 25.8504 23.4058 26.0015 23.4058H26.0088C26.1599 23.4058 26.2823 23.2746 26.2823 23.1128C26.2823 22.951 26.1599 22.8198 26.0088 22.8198Z" fill="white"/>
<path d="M25.2158 22.8198H24.3672C24.2162 22.8198 24.0938 22.951 24.0938 23.1128C24.0938 23.2746 24.2162 23.4058 24.3672 23.4058H25.2158C25.3668 23.4058 25.4892 23.2746 25.4892 23.1128C25.4892 22.951 25.3668 22.8198 25.2158 22.8198Z" fill="white"/>
<path d="M31.0252 27.687C30.9602 27.4292 30.8054 27.2139 30.5898 27.0812L29.2522 26.2538C29.2388 26.2445 29.2252 26.2355 29.2116 26.2271L27.8775 25.4018C27.7246 25.2938 27.547 25.2368 27.3631 25.2368C26.8471 25.2368 26.4272 25.6866 26.4272 26.2395V29.6558C26.4272 29.6677 26.4279 29.6795 26.4292 29.691C26.4346 29.8545 26.4777 30.0151 26.5546 30.1574C26.7211 30.4655 27.0312 30.6569 27.3637 30.6569C27.5274 30.6569 27.6891 30.6102 27.831 30.5222L29.2116 29.6681C29.2194 29.6632 29.227 29.658 29.2342 29.6525L30.58 28.8201C30.7269 28.7322 30.8491 28.6028 30.9334 28.4457C31.0575 28.2142 31.0901 27.9447 31.0252 27.687ZM30.4593 28.1537C30.4242 28.2191 30.3734 28.2729 30.3125 28.3091C30.3111 28.3099 30.3098 28.3107 30.3084 28.3115L28.9376 29.1594C28.9298 29.1643 28.9222 29.1695 28.915 29.175L27.5572 30.015C27.4982 30.0516 27.4313 30.071 27.3637 30.071C27.2256 30.071 27.0969 29.9916 27.0278 29.8638C26.9936 29.8004 26.9755 29.7286 26.9756 29.6561C26.9756 29.6461 26.9751 29.6362 26.9741 29.6263V26.2395H26.9742C26.9742 26.0097 27.1487 25.8228 27.3631 25.8228C27.4411 25.8228 27.5161 25.8472 27.5801 25.8936C27.5854 25.8974 27.5909 25.9011 27.5964 25.9045L28.9388 26.7349C28.9455 26.7391 28.9519 26.7435 28.9583 26.748C28.9629 26.7512 28.9675 26.7543 28.9722 26.7572L30.3169 27.589C30.4063 27.644 30.4703 27.7331 30.4972 27.8398C30.5241 27.9465 30.5106 28.058 30.4593 28.1537Z" fill="white"/>
</g>
<path d="M54.2781 15.6697L54.2783 15.6698C54.3507 15.7121 54.4163 15.7635 54.474 15.8224L54.6525 15.6473C54.7999 15.7976 54.9059 15.9852 54.9598 16.1906L54.7179 16.254C54.7389 16.3341 54.75 16.4176 54.75 16.5028C54.75 16.5028 54.75 16.5028 54.75 16.5028V18.718H55V23.1486H54.75V27.5791H55V32.0097H54.75V36.4403H55V40.8708H54.75V43.0861C54.75 43.1712 54.739 43.2548 54.718 43.3349L54.9598 43.3983C54.906 43.6036 54.8 43.7913 54.6526 43.9416L54.4741 43.7665C54.4164 43.8253 54.3508 43.8768 54.2784 43.919L54.2783 43.9191L52.2101 45.1274L52.3362 45.3433L48.1998 47.76L48.0737 47.5441L43.9374 49.9608L44.0635 50.1766L39.9271 52.5933L39.801 52.3774L35.6646 54.7941L35.7908 55.0099L31.6544 57.4266L31.5283 57.2107L29.4601 58.4191L29.5862 58.6349L29.4601 58.4191C29.4247 58.4398 29.3885 58.4578 29.3518 58.4733L29.4489 58.7037C29.3534 58.744 29.2541 58.7708 29.1532 58.7843L29.1202 58.5365C29.0804 58.5418 29.0403 58.5444 29 58.5444C28.9597 58.5444 28.9196 58.5418 28.8798 58.5365L28.8468 58.7843C28.7459 58.7708 28.6466 58.744 28.5511 58.7037L28.6482 58.4733C28.6115 58.4578 28.5753 58.4398 28.5399 58.4191L28.4138 58.6349L28.5399 58.4191L26.4717 57.2107L26.3456 57.4266L22.2092 55.0099L22.3354 54.7941L18.199 52.3774L18.0729 52.5933L13.9365 50.1766L14.0626 49.9608L9.92629 47.5441L9.80017 47.7599L5.66382 45.3433L5.78993 45.1274L3.72175 43.9191L3.72162 43.919C3.64917 43.8768 3.58358 43.8253 3.52588 43.7665L3.34741 43.9416C3.2 43.7913 3.09396 43.6036 3.04017 43.3983L3.28201 43.3349C3.26102 43.2548 3.25 43.1712 3.25 43.0861V40.8708H3V36.4403H3.25V32.0097H3V27.5791H3.25V23.1486H3V18.718H3.25V16.5028C3.25 16.4176 3.26102 16.3341 3.28201 16.2539L3.04017 16.1906C3.09396 15.9852 3.2 15.7976 3.34741 15.6473L3.52588 15.8224C3.58358 15.7635 3.64917 15.7121 3.72162 15.6698L3.72175 15.6697L5.78993 14.4614L5.66382 14.2456L9.80017 11.8289L9.92629 12.0447L14.0626 9.62809L13.9365 9.41223L18.0729 6.99556L18.199 7.21142L22.3354 4.79476L22.2092 4.5789L26.3456 2.16224L26.4717 2.3781L28.5399 1.16977C28.611 1.12825 28.6856 1.09716 28.762 1.07633L28.6963 0.835132C28.8953 0.780867 29.1046 0.780867 29.3036 0.835132L29.2379 1.07633C29.3143 1.09716 29.3889 1.12825 29.46 1.16976L31.5282 2.3781L31.6543 2.16224L35.7906 4.5789L35.6645 4.79476L39.8009 7.21142L39.927 6.99556L44.0634 9.41223L43.9372 9.62809L48.0736 12.0447L48.1997 11.8289L52.3361 14.2456L52.21 14.4614L54.2781 15.6697Z" stroke="white" stroke-width="0.5" stroke-dasharray="5 5"/>
<defs>
<filter id="filter0_d_2249_2" x="0" y="3.79443" width="54" height="58" filterUnits="userSpaceOnUse" color-interpolation-filters="sRGB">
<feFlood flood-opacity="0" result="BackgroundImageFix"/>
<feColorMatrix in="SourceAlpha" type="matrix" values="0 0 0 0 0 0 0 0 0 0 0 0 0 0 0 0 0 0 127 0" result="hardAlpha"/>
<feOffset dx="-2" dy="3"/>
<feGaussianBlur stdDeviation="3.5"/>
<feColorMatrix type="matrix" values="0 0 0 0 0 0 0 0 0 0 0 0 0 0 0 0 0 0 0.08 0"/>
<feBlend mode="normal" in2="BackgroundImageFix" result="effect1_dropShadow_2249_2"/>
<feBlend mode="normal" in="SourceGraphic" in2="effect1_dropShadow_2249_2" result="shape"/>
</filter>
<clipPath id="clip0_2249_2">
<rect width="14" height="15" fill="white" transform="translate(23 21.7944)"/>
</clipPath>
</defs>
</svg>
