<svg width="8" height="17" viewBox="0 0 8 17" fill="none" xmlns="http://www.w3.org/2000/svg">
<path d="M0.863938 3.368L0.264653 2.56746L-0.480372 3.12519L0.0224714 3.90831L0.863938 3.368ZM2.32794 5.648L1.48647 6.18831L2.06973 7.09666L2.9309 6.44577L2.32794 5.648ZM4.39194 4.088H5.39194V2.07869L3.78897 3.29023L4.39194 4.088ZM4.39194 17H3.39194V18H4.39194V17ZM7.15194 17V18H8.15194V17H7.15194ZM7.15194 0.151999H8.15194V-0.848001H7.15194V0.151999ZM5.15994 0.151999V-0.848001H4.8271L4.56065 -0.648537L5.15994 0.151999ZM0.0224714 3.90831L1.48647 6.18831L3.1694 5.10769L1.7054 2.82769L0.0224714 3.90831ZM2.9309 6.44577L4.9949 4.88577L3.78897 3.29023L1.72497 4.85023L2.9309 6.44577ZM3.39194 4.088V17H5.39194V4.088H3.39194ZM4.39194 18H7.15194V16H4.39194V18ZM8.15194 17V0.151999H6.15194V17H8.15194ZM7.15194 -0.848001H5.15994V1.152H7.15194V-0.848001ZM4.56065 -0.648537L0.264653 2.56746L1.46322 4.16854L5.75922 0.952536L4.56065 -0.648537Z" fill="white"/>
</svg>
