<svg width="11" height="17" viewBox="0 0 11 17" fill="none" xmlns="http://www.w3.org/2000/svg">
<path d="M0.0950313 17H-0.904969V18H0.0950313V17ZM10.655 17V18H11.655V17H10.655ZM10.655 14.432H11.655V13.432H10.655V14.432ZM3.67103 14.432L3.03779 13.658L0.869623 15.432H3.67103V14.432ZM0.215031 3.992L-0.768058 3.80887L-0.912224 4.58281L-0.193752 4.90463L0.215031 3.992ZM2.51903 5.024L2.11025 5.93663L3.19526 6.42263L3.4882 5.2704L2.51903 5.024ZM0.0950313 14.792L-0.60579 14.0787L-0.904969 14.3726V14.792H0.0950313ZM0.0950313 18H10.655V16H0.0950313V18ZM11.655 17V14.432H9.65503V17H11.655ZM10.655 13.432H3.67103V15.432H10.655V13.432ZM4.30427 15.206C4.98089 14.6524 6.63067 13.2668 8.11682 11.3973C9.58514 9.55025 11.007 7.0906 11.007 4.4H9.00703C9.00703 6.4134 7.92093 8.42975 6.55124 10.1527C5.1994 11.8532 3.68117 13.1316 3.03779 13.658L4.30427 15.206ZM11.007 4.4C11.007 3.05529 10.5366 1.69913 9.54821 0.673205C8.5487 -0.364308 7.08926 -0.992 5.25503 -0.992V1.008C6.6128 1.008 7.52937 1.46031 8.10786 2.06079C8.69751 2.67287 9.00703 3.5127 9.00703 4.4H11.007ZM5.25503 -0.992C2.14943 -0.992 -0.216718 0.849046 -0.768058 3.80887L1.19812 4.17512C1.55878 2.23895 3.03264 1.008 5.25503 1.008V-0.992ZM-0.193752 4.90463L2.11025 5.93663L2.92781 4.11137L0.623815 3.07937L-0.193752 4.90463ZM3.4882 5.2704C3.63451 4.69493 3.86327 4.31742 4.10156 4.09304C4.32551 3.88217 4.59573 3.768 4.94303 3.768V1.768C4.09033 1.768 3.32855 2.07383 2.7305 2.63696C2.1468 3.18658 1.76356 3.93707 1.54986 4.7776L3.4882 5.2704ZM4.94303 3.768C5.43484 3.768 5.68073 3.91108 5.80889 4.04565C5.94436 4.18789 6.07903 4.45856 6.07903 4.952H8.07903C8.07903 4.10144 7.84171 3.28011 7.25717 2.66634C6.66534 2.04492 5.84322 1.768 4.94303 1.768V3.768ZM6.07903 4.952C6.07903 6.20454 5.23234 7.75188 3.83907 9.45476C2.47906 11.117 0.786465 12.7108 -0.60579 14.0787L0.795853 15.5053C2.1396 14.1852 3.93901 12.491 5.38699 10.7212C6.80172 8.99212 8.07903 6.96346 8.07903 4.952H6.07903ZM-0.904969 14.792V17H1.09503V14.792H-0.904969Z" fill="#00C5DE"/>
</svg>
