<svg width="12" height="19" viewBox="0 0 12 19" fill="none" xmlns="http://www.w3.org/2000/svg">
<path d="M8.27272 9.264H7.27272V10.1063L8.10281 10.2495L8.27272 9.264ZM8.27272 9.192L7.87258 8.27555L7.27272 8.53746V9.192H8.27272ZM1.04872 3.552L0.167054 3.08012L-0.142141 3.65783L0.264084 4.17196L1.04872 3.552ZM2.58472 5.496L1.80008 6.11596L2.64138 7.18072L3.40923 6.06184L2.58472 5.496ZM4.21672 8.04V7.04H3.21672V8.04H4.21672ZM4.21672 10.8H3.21672V11.8H4.21672V10.8ZM2.22472 13.416L3.05431 12.8576L2.28119 11.709L1.43385 12.804L2.22472 13.416ZM0.664719 15.432L-0.126152 14.82L-0.51797 15.3264L-0.222089 15.8941L0.664719 15.432ZM5.99272 19.264C7.73991 19.264 9.36028 18.7283 10.5591 17.6826C11.7718 16.6247 12.4887 15.0981 12.4887 13.272H10.4887C10.4887 14.5419 10.0056 15.5113 9.24435 16.1754C8.46916 16.8517 7.34153 17.264 5.99272 17.264V19.264ZM12.4887 13.272C12.4887 10.8752 11.0867 8.73442 8.44263 8.27854L8.10281 10.2495C9.63469 10.5136 10.4887 11.6848 10.4887 13.272H12.4887ZM9.27272 9.264V9.192H7.27272V9.264H9.27272ZM8.67286 10.1085C9.67458 9.67108 10.4838 9.03138 11.0364 8.17352C11.5881 7.31711 11.8407 6.31044 11.8407 5.208H9.84072C9.84072 6.00155 9.66138 6.61489 9.35503 7.09048C9.04962 7.56462 8.57485 7.96892 7.87258 8.27555L8.67286 10.1085ZM11.8407 5.208C11.8407 3.62555 11.249 2.27306 10.1661 1.32843C9.09808 0.396767 7.63968 -0.0640006 6.01672 -0.0640006V1.936C7.27375 1.936 8.22736 2.29123 8.85135 2.83557C9.46049 3.36694 9.84072 4.15045 9.84072 5.208H11.8407ZM6.01672 -0.0640006C3.4354 -0.0640006 1.29237 0.977563 0.167054 3.08012L1.93038 4.02388C2.62907 2.71843 3.99004 1.936 6.01672 1.936V-0.0640006ZM0.264084 4.17196L1.80008 6.11596L3.36935 4.87604L1.83335 2.93204L0.264084 4.17196ZM3.40923 6.06184C3.76826 5.53868 4.12063 5.20852 4.4764 5.00493C4.82513 4.80537 5.23163 4.696 5.75272 4.696V2.696C4.92981 2.696 4.1723 2.87463 3.48304 3.26906C2.8008 3.65948 2.24118 4.22932 1.76021 4.93016L3.40923 6.06184ZM5.75272 4.696C6.27742 4.696 6.52726 4.84466 6.6477 4.96714C6.77235 5.09391 6.88872 5.32548 6.88872 5.736H8.88872C8.88872 4.94652 8.65708 4.15809 8.07374 3.56486C7.48618 2.96734 6.66802 2.696 5.75272 2.696V4.696ZM6.88872 5.736C6.88872 6.45757 6.2947 7.04 5.29672 7.04V9.04C7.03473 9.04 8.88872 7.89443 8.88872 5.736H6.88872ZM5.29672 7.04H4.21672V9.04H5.29672V7.04ZM3.21672 8.04V10.8H5.21672V8.04H3.21672ZM4.21672 11.8H5.41672V9.8H4.21672V11.8ZM5.41672 11.8C6.26386 11.8 6.80341 11.9857 7.10644 12.2125C7.36904 12.4091 7.53672 12.6943 7.53672 13.176H9.53672C9.53672 12.1217 9.1164 11.2189 8.305 10.6115C7.53402 10.0343 6.51357 9.8 5.41672 9.8V11.8ZM7.53672 13.176C7.53672 13.5672 7.40127 13.8732 7.17323 14.0861C6.94327 14.3008 6.52837 14.504 5.82472 14.504V16.504C6.92106 16.504 7.86217 16.1792 8.53821 15.5479C9.21617 14.9148 9.53672 14.0568 9.53672 13.176H7.53672ZM5.82472 14.504C4.76517 14.504 3.75243 13.8948 3.05431 12.8576L1.39513 13.9744C2.37701 15.4332 3.95627 16.504 5.82472 16.504V14.504ZM1.43385 12.804L-0.126152 14.82L1.45559 16.044L3.01559 14.028L1.43385 12.804ZM-0.222089 15.8941C0.867617 17.9852 3.12031 19.264 5.99272 19.264V17.264C3.72913 17.264 2.23782 16.2868 1.55153 14.9699L-0.222089 15.8941Z" fill="#00C5DE"/>
</svg>
