<svg width="14" height="17" viewBox="0 0 14 17" fill="none" xmlns="http://www.w3.org/2000/svg">
<path d="M8.25484 17H7.25484V18H8.25484V17ZM11.0148 17V18H12.0148V17H11.0148ZM11.0148 13.112V12.112H10.0148V13.112H11.0148ZM13.1748 13.112V14.112H14.1748V13.112H13.1748ZM13.1748 10.352H14.1748V9.352H13.1748V10.352ZM11.0148 10.352H10.0148V11.352H11.0148V10.352ZM11.0148 6.2H12.0148V5.2H11.0148V6.2ZM8.25484 6.2V5.2H7.25484V6.2H8.25484ZM8.25484 10.352V11.352H9.25484V10.352H8.25484ZM4.15084 10.352L3.29264 9.8387L2.38752 11.352H4.15084V10.352ZM10.2228 0.199999L11.0811 0.713301L11.9862 -0.800001H10.2228V0.199999ZM7.05484 0.199999V-0.800001H6.48672L6.19585 -0.311985L7.05484 0.199999ZM0.574844 11.072L-0.284151 10.56L-0.425156 10.7966V11.072H0.574844ZM0.574844 13.112H-0.425156V14.112H0.574844V13.112ZM8.25484 13.112H9.25484V12.112H8.25484V13.112ZM8.25484 18H11.0148V16H8.25484V18ZM12.0148 17V13.112H10.0148V17H12.0148ZM11.0148 14.112H13.1748V12.112H11.0148V14.112ZM14.1748 13.112V10.352H12.1748V13.112H14.1748ZM13.1748 9.352H11.0148V11.352H13.1748V9.352ZM12.0148 10.352V6.2H10.0148V10.352H12.0148ZM11.0148 5.2H8.25484V7.2H11.0148V5.2ZM7.25484 6.2V10.352H9.25484V6.2H7.25484ZM8.25484 9.352H4.15084V11.352H8.25484V9.352ZM5.00905 10.8653L11.0811 0.713301L9.36464 -0.313303L3.29264 9.8387L5.00905 10.8653ZM10.2228 -0.800001H7.05484V1.2H10.2228V-0.800001ZM6.19585 -0.311985L-0.284151 10.56L1.43384 11.584L7.91384 0.711983L6.19585 -0.311985ZM-0.425156 11.072V13.112H1.57484V11.072H-0.425156ZM0.574844 14.112H8.25484V12.112H0.574844V14.112ZM7.25484 13.112V17H9.25484V13.112H7.25484Z" fill="#00C5DE"/>
</svg>
